<svg xmlns="http://www.w3.org/2000/svg" width="800" height="800" viewBox="0 0 800 800">
  <defs>
    <linearGradient id="bg" x1="0" y1="0" x2="1" y2="1">
      <stop offset="0%" stop-color="#f1f5f9"/>
      <stop offset="100%" stop-color="#e2e8f0"/>
    </linearGradient>
    <linearGradient id="block" x1="0" y1="0" x2="1" y2="1">
      <stop offset="0%" stop-color="#e2e8f0"/>
      <stop offset="50%" stop-color="#f8fafc"/>
      <stop offset="100%" stop-color="#94a3b8"/>
    </linearGradient>
  </defs>
  <rect width="800" height="800" fill="url(#bg)"/>
  <!-- Cortical block shape -->
  <rect x="270" y="300" width="260" height="200" rx="8" fill="url(#block)" stroke="#94a3b8" stroke-width="2"/>
  <!-- Dense cortical texture lines -->
  <line x1="280" y1="320" x2="520" y2="320" stroke="#cbd5e1" stroke-width="1" opacity="0.7"/>
  <line x1="280" y1="335" x2="520" y2="335" stroke="#cbd5e1" stroke-width="1" opacity="0.7"/>
  <line x1="280" y1="350" x2="520" y2="350" stroke="#cbd5e1" stroke-width="0.8" opacity="0.5"/>
  <line x1="280" y1="365" x2="520" y2="365" stroke="#cbd5e1" stroke-width="1" opacity="0.7"/>
  <line x1="280" y1="380" x2="520" y2="380" stroke="#cbd5e1" stroke-width="1" opacity="0.7"/>
  <line x1="280" y1="395" x2="520" y2="395" stroke="#cbd5e1" stroke-width="0.8" opacity="0.5"/>
  <line x1="280" y1="410" x2="520" y2="410" stroke="#cbd5e1" stroke-width="1" opacity="0.7"/>
  <line x1="280" y1="425" x2="520" y2="425" stroke="#cbd5e1" stroke-width="1" opacity="0.7"/>
  <line x1="280" y1="440" x2="520" y2="440" stroke="#cbd5e1" stroke-width="0.8" opacity="0.5"/>
  <line x1="280" y1="455" x2="520" y2="455" stroke="#cbd5e1" stroke-width="1" opacity="0.7"/>
  <line x1="280" y1="470" x2="520" y2="470" stroke="#cbd5e1" stroke-width="1" opacity="0.7"/>
  <!-- Labels -->
  <text x="400" y="240" font-family="Georgia,serif" font-size="28" fill="#475569" text-anchor="middle" font-style="italic">Titan Bone™</text>
  <text x="400" y="278" font-family="Arial,sans-serif" font-size="14" fill="#94a3b8" text-anchor="middle">High-Density Cortical Allograft · 100% Cortical</text>
  <text x="400" y="560" font-family="Arial,sans-serif" font-size="13" fill="#94a3b8" text-anchor="middle">High Density · Resists Compression · 5–6 mo remodeling</text>
</svg>
